<svg id="Capa_1" enable-background="new 0 0 512 512" height="512" viewBox="0 0 512 512" width="512" xmlns="http://www.w3.org/2000/svg"><g><g><path d="m348.75 504.5h-292.073c-17.044 0-30.861-13.817-30.861-30.861v-435.278c0-17.044 13.817-30.861 30.861-30.861h292.073c17.044 0 30.861 13.817 30.861 30.861v435.278c0 17.044-13.817 30.861-30.861 30.861z" fill="#f9f6f9"/><path d="m348.75 7.5h-67.5c17.044 0 30.861 13.817 30.861 30.861v435.278c0 17.044-13.817 30.861-30.861 30.861h67.5c17.044 0 30.861-13.817 30.861-30.861v-435.278c0-17.044-13.817-30.861-30.861-30.861z" fill="#dddaec"/><path d="m66.826 415.198v-352.353c0-7.917 6.418-14.336 14.336-14.336h243.103c7.917 0 14.336 6.418 14.336 14.336v352.353c0 7.917-6.418 14.336-14.336 14.336h-243.103c-7.917 0-14.336-6.418-14.336-14.336z" fill="#c9e0fd"/><path d="m324.265 48.51h-12.154v381.024h12.154c7.917 0 14.336-6.418 14.336-14.336v-352.353c0-7.917-6.418-14.335-14.336-14.335z" fill="#bcd6f9"/><path d="m324.265 48.51h-243.103c-7.917 0-14.336 6.418-14.336 14.336v36.154h271.774v-36.155c.001-7.917-6.417-14.335-14.335-14.335z" fill="#9bc4f9"/><path d="m324.265 48.51h-12.154v50.49h26.49v-36.155c0-7.917-6.418-14.335-14.336-14.335z" fill="#7fb2f9"/></g><g><g><g><path d="m186.969 185.66h281.711c9.667 0 17.504 7.837 17.504 17.504v111.002h-316.719v-111.002c0-9.667 7.837-17.504 17.504-17.504z" fill="#ffc250"/><g><g><path d="m274.302 207.52-9.97-22.492c-3.242-7.313-10.489-12.028-18.489-12.028h-58.764c-9.728 0-17.614 7.886-17.614 17.614v221.456c0 9.667 7.837 17.504 17.504 17.504h281.711c9.667 0 17.504-7.837 17.504-17.504v-171.236c0-11.756-9.53-21.286-21.286-21.286h-172.107c-7.999.001-15.247-4.714-18.489-12.028z" fill="#ffe07d"/></g></g></g><g><g><path d="m468.68 185.66h-66.873c9.667 0 17.504 7.837 17.504 17.504v111.002h66.873v-111.002c0-9.667-7.837-17.504-17.504-17.504z" fill="#ebb044"/></g><g><path d="m464.898 219.549h-45.587v192.521c0 9.667-7.836 17.504-17.503 17.504h66.871c9.667 0 17.504-7.837 17.504-17.504v-171.235c.001-11.756-9.529-21.286-21.285-21.286z" fill="#f4e580"/></g></g><path d="m366.433 294h78.505c3.174 0 5.747-2.573 5.747-5.747v-26.505c0-3.174-2.573-5.747-5.747-5.747h-78.505c-3.174 0-5.747 2.573-5.747 5.747v26.505c-.001 3.173 2.573 5.747 5.747 5.747z" fill="#9bc4f9"/><path d="m419.312 294h25.626c3.174 0 5.747-2.573 5.747-5.748v-26.505c0-3.174-2.573-5.747-5.747-5.747h-25.626z" fill="#7fb2f9"/></g></g><g><path d="m186.213 472.5h33c4.143 0 7.5-3.357 7.5-7.5s-3.357-7.5-7.5-7.5h-33c-4.143 0-7.5 3.357-7.5 7.5s3.358 7.5 7.5 7.5z"/><circle cx="108.464" cy="73.755" r="7.5"/><circle cx="142.714" cy="73.755" r="7.5"/><circle cx="176.964" cy="73.755" r="7.5"/><path d="m324.265 41.01h-243.103c-12.04 0-21.835 9.796-21.835 21.836v352.353c0 12.04 9.795 21.836 21.835 21.836h56.4c4.143 0 7.5-3.357 7.5-7.5s-3.357-7.5-7.5-7.5h-56.4c-3.769 0-6.835-3.066-6.835-6.836v-308.699h256.774v44.098c0 4.143 3.357 7.5 7.5 7.5s7.5-3.357 7.5-7.5v-87.752c0-12.04-9.796-21.836-21.836-21.836zm6.836 50.49h-256.774v-28.654c0-3.77 3.066-6.836 6.835-6.836h243.104c3.77 0 6.836 3.066 6.836 6.836v28.654z"/><path d="m468.679 178.16h-81.568v-139.8c0-21.152-17.208-38.36-38.36-38.36h-292.074c-21.152 0-38.361 17.208-38.361 38.36v435.278c0 21.152 17.209 38.361 38.361 38.361h292.073c21.152 0 38.36-17.209 38.36-38.361v-36.565h81.569c13.787 0 25.004-11.217 25.004-25.004v-31.969c0-4.143-3.357-7.5-7.5-7.5s-7.5 3.357-7.5 7.5v31.969c0 5.517-4.487 10.004-10.004 10.004h-281.71c-5.517 0-10.004-4.487-10.004-10.004v-221.456c0-5.576 4.537-10.113 10.113-10.113h58.765c5.028 0 9.594 2.971 11.632 7.567l.227.512v.001l9.743 21.98c4.44 10.016 14.39 16.488 25.346 16.488h172.106c7.602 0 13.786 6.184 13.786 13.785v.001 104.203c0 4.143 3.357 7.5 7.5 7.5s7.5-3.357 7.5-7.5v-141.873c.001-13.787-11.216-25.004-25.004-25.004zm-199.573 0c-5.054-7.803-13.777-12.66-23.263-12.66h-58.765c-13.848 0-25.113 11.266-25.113 25.113v221.456c0 13.787 11.217 25.004 25.004 25.004h185.142v36.565c0 12.882-10.479 23.361-23.36 23.361h-292.074c-12.882 0-23.361-10.479-23.361-23.361v-435.278c0-12.881 10.479-23.36 23.361-23.36h292.073c12.881 0 23.36 10.479 23.36 23.36v139.8zm209.578 37.412c-4.097-2.244-8.794-3.523-13.786-3.523h-172.106c-5.028 0-9.595-2.971-11.633-7.567l-5.019-11.321h192.539c5.517 0 10.005 4.487 10.005 10.004z"/><path d="m366.433 248.5c-7.305 0-13.248 5.942-13.248 13.247v26.505c0 7.305 5.943 13.248 13.248 13.248h78.505c7.305 0 13.247-5.943 13.247-13.248v-26.505c0-7.305-5.942-13.247-13.247-13.247zm76.752 38h-75v-23h75z"/></g></g></svg>